<svg xmlns="http://www.w3.org/2000/svg" xmlns:xlink="http://www.w3.org/1999/xlink" width="186" height="455" viewBox="0 0 186 455">
  <defs>
    <clipPath id="clip-Sprite">
      <rect width="186" height="455"/>
    </clipPath>
  </defs>
  <g id="Sprite" clip-path="url(#clip-Sprite)">
    <g id="Group_28" data-name="Group 28" transform="translate(-913 -143)">
      <path id="Forma_1" data-name="Forma 1" d="M29,86.81v-8h6v8Zm-8,0v-4h6v4Zm0-6v-8h6v8Zm8-4v-4h6v4Z" transform="translate(1023 94.19)" fill="#fff"/>
      <g id="man-user_1_" data-name="man-user (1)" transform="translate(1002.105 210)">
        <path id="Path_16" data-name="Path 16" d="M108.225,8.963c2.038,0,3.689-2.006,3.689-4.481S111.372,0,108.225,0s-3.69,2.006-3.69,4.481S106.187,8.963,108.225,8.963Z" transform="translate(-59.36)" fill="#fff"/>
        <path id="Path_17" data-name="Path 17" d="M41.9,300.449c0-.151,0-.043,0,0Z" transform="translate(0 -284.645)" fill="#fff"/>
        <path id="Path_18" data-name="Path 18" d="M308.085,301.623c0-.041,0-.287,0,0Z" transform="translate(-252.252 -285.7)" fill="#fff"/>
        <path id="Path_19" data-name="Path 19" d="M55.837,182.044c-.068-4.311-.631-3.527-4.94-4.3a3.027,3.027,0,0,1-4.041,0c-4.262.769-4.859-.034-4.938,4.164-.006.343-.009.361-.011.321,0,.075,0,.212,0,.453,0,0,1.026,2.068,6.968,2.068s6.968-2.068,6.968-2.068c0-.155,0-.262,0-.335A2.775,2.775,0,0,1,55.837,182.044Z" transform="translate(-0.012 -168.434)" fill="#fff"/>
      </g>
      <g id="Group_27" data-name="Group 27" transform="translate(1023 185)">
        <g id="calendar-day-15" transform="translate(20.284 72)">
          <g id="Group_9" data-name="Group 9" transform="translate(0.716 0)">
            <path id="Path_12" data-name="Path 12" d="M13.285,2.636v.725A1.34,1.34,0,0,1,11.955,4.7h-.068A1.346,1.346,0,0,1,10.55,3.361V2.54H9.095c-.035.025-3.16-.007-2.735,0H4.881v.821A1.329,1.329,0,0,1,3.564,4.7H3.5A1.335,1.335,0,0,1,2.171,3.361V2.647A2.116,2.116,0,0,0,.716,4.665V13.12a2.115,2.115,0,0,0,2.122,2.117h9.806a2.113,2.113,0,0,0,2.119-2.117V4.665A2.128,2.128,0,0,0,13.285,2.636Zm.426,10.289a1.229,1.229,0,0,1-1.226,1.233H3A1.231,1.231,0,0,1,1.77,12.925V7.208a.829.829,0,0,1,.835-.83H12.878a.827.827,0,0,1,.833.83v5.717Z" transform="translate(-0.716 -1.737)" fill="#fff"/>
            <path id="Path_13" data-name="Path 13" d="M8,2.309h.067a.683.683,0,0,0,.524-.236.675.675,0,0,0,.166-.447h0V.686h0A.69.69,0,0,0,8.557.2s0,0,0,0,0,0,0,0A.686.686,0,0,0,8.065,0H8a.687.687,0,0,0-.488.2s0,0,0,0L7.5.2a.69.69,0,0,0-.2.486h0v.941h0a.679.679,0,0,0,.17.447A.691.691,0,0,0,8,2.309Z" transform="translate(-5.217 -0.002)" fill="#fff"/>
            <path id="Path_15" data-name="Path 15" d="M34.549,2.308h.067a.7.7,0,0,0,.531-.236.681.681,0,0,0,.173-.447h0V.685h0a.7.7,0,0,0-.365-.609l-.006,0L34.9.049l-.009,0L34.874.04,34.855.033l-.01,0c-.007,0-.015,0-.022,0A.692.692,0,0,0,34.617,0H34.55a.664.664,0,0,0-.1,0,.685.685,0,0,0-.584.681v.941A.677.677,0,0,0,34.549,2.308Z" transform="translate(-23.378 0)" fill="#fff"/>
          </g>
        </g>
        <g id="Union_3" data-name="Union 3" transform="translate(2133 186)" fill="#fff">
          <path d="M -2100.999755859375 -103.5005035400391 C -2101.275390625 -103.5005035400391 -2101.49951171875 -103.7247543334961 -2101.49951171875 -104.0004043579102 C -2101.49951171875 -104.2760543823242 -2101.275390625 -104.5003051757813 -2100.999755859375 -104.5003051757813 C -2100.72412109375 -104.5003051757813 -2100.499755859375 -104.2760543823242 -2100.499755859375 -104.0004043579102 C -2100.499755859375 -103.7247543334961 -2100.72412109375 -103.5005035400391 -2100.999755859375 -103.5005035400391 Z M -2105.000244140625 -103.5005035400391 C -2105.27587890625 -103.5005035400391 -2105.5 -103.7247543334961 -2105.5 -104.0004043579102 C -2105.5 -104.2760543823242 -2105.27587890625 -104.5003051757813 -2105.000244140625 -104.5003051757813 C -2104.724609375 -104.5003051757813 -2104.500244140625 -104.2760543823242 -2104.500244140625 -104.0004043579102 C -2104.500244140625 -103.7247543334961 -2104.724609375 -103.5005035400391 -2105.000244140625 -103.5005035400391 Z M -2108.999755859375 -103.5005035400391 C -2109.275390625 -103.5005035400391 -2109.499755859375 -103.7247543334961 -2109.499755859375 -104.0004043579102 C -2109.499755859375 -104.2760543823242 -2109.275390625 -104.5003051757813 -2108.999755859375 -104.5003051757813 C -2108.72412109375 -104.5003051757813 -2108.499755859375 -104.2760543823242 -2108.499755859375 -104.0004043579102 C -2108.499755859375 -103.7247543334961 -2108.72412109375 -103.5005035400391 -2108.999755859375 -103.5005035400391 Z M -2100.999755859375 -106.5001983642578 C -2101.275390625 -106.5001983642578 -2101.49951171875 -106.7244491577148 -2101.49951171875 -107.0000991821289 C -2101.49951171875 -107.275749206543 -2101.275390625 -107.5 -2100.999755859375 -107.5 C -2100.72412109375 -107.5 -2100.499755859375 -107.275749206543 -2100.499755859375 -107.0000991821289 C -2100.499755859375 -106.7244491577148 -2100.72412109375 -106.5001983642578 -2100.999755859375 -106.5001983642578 Z M -2105.000244140625 -106.5001983642578 C -2105.27587890625 -106.5001983642578 -2105.5 -106.7244491577148 -2105.5 -107.0000991821289 C -2105.5 -107.275749206543 -2105.27587890625 -107.5 -2105.000244140625 -107.5 C -2104.724609375 -107.5 -2104.500244140625 -107.275749206543 -2104.500244140625 -107.0000991821289 C -2104.500244140625 -106.7244491577148 -2104.724609375 -106.5001983642578 -2105.000244140625 -106.5001983642578 Z M -2108.999755859375 -106.5001983642578 C -2109.275390625 -106.5001983642578 -2109.499755859375 -106.7244491577148 -2109.499755859375 -107.0000991821289 C -2109.499755859375 -107.275749206543 -2109.275390625 -107.5 -2108.999755859375 -107.5 C -2108.72412109375 -107.5 -2108.499755859375 -107.275749206543 -2108.499755859375 -107.0000991821289 C -2108.499755859375 -106.7244491577148 -2108.72412109375 -106.5001983642578 -2108.999755859375 -106.5001983642578 Z" stroke="none"/>
          <path d="M -2100.999755859375 -103.0005035400391 C -2101.55224609375 -103.0005035400391 -2101.99951171875 -103.4477996826172 -2101.99951171875 -104.0004043579102 C -2101.99951171875 -104.5530014038086 -2101.55224609375 -105.0003051757813 -2100.999755859375 -105.0003051757813 C -2100.447998046875 -105.0003051757813 -2099.999755859375 -104.5530014038086 -2099.999755859375 -104.0004043579102 C -2099.999755859375 -103.4477996826172 -2100.447998046875 -103.0005035400391 -2100.999755859375 -103.0005035400391 Z M -2105.000244140625 -103.0005035400391 C -2105.5517578125 -103.0005035400391 -2106 -103.4477996826172 -2106 -104.0004043579102 C -2106 -104.5530014038086 -2105.5517578125 -105.0003051757813 -2105.000244140625 -105.0003051757813 C -2104.447509765625 -105.0003051757813 -2104.000244140625 -104.5530014038086 -2104.000244140625 -104.0004043579102 C -2104.000244140625 -103.4477996826172 -2104.447509765625 -103.0005035400391 -2105.000244140625 -103.0005035400391 Z M -2108.999755859375 -103.0005035400391 C -2109.55224609375 -103.0005035400391 -2109.999755859375 -103.4477996826172 -2109.999755859375 -104.0004043579102 C -2109.999755859375 -104.5530014038086 -2109.55224609375 -105.0003051757813 -2108.999755859375 -105.0003051757813 C -2108.447998046875 -105.0003051757813 -2107.999755859375 -104.5530014038086 -2107.999755859375 -104.0004043579102 C -2107.999755859375 -103.4477996826172 -2108.447998046875 -103.0005035400391 -2108.999755859375 -103.0005035400391 Z M -2100.999755859375 -106.0001983642578 C -2101.55224609375 -106.0001983642578 -2101.99951171875 -106.4475021362305 -2101.99951171875 -107.0000991821289 C -2101.99951171875 -107.5527038574219 -2101.55224609375 -108 -2100.999755859375 -108 C -2100.447998046875 -108 -2099.999755859375 -107.5527038574219 -2099.999755859375 -107.0000991821289 C -2099.999755859375 -106.4475021362305 -2100.447998046875 -106.0001983642578 -2100.999755859375 -106.0001983642578 Z M -2105.000244140625 -106.0001983642578 C -2105.5517578125 -106.0001983642578 -2106 -106.4475021362305 -2106 -107.0000991821289 C -2106 -107.5527038574219 -2105.5517578125 -108 -2105.000244140625 -108 C -2104.447509765625 -108 -2104.000244140625 -107.5527038574219 -2104.000244140625 -107.0000991821289 C -2104.000244140625 -106.4475021362305 -2104.447509765625 -106.0001983642578 -2105.000244140625 -106.0001983642578 Z M -2108.999755859375 -106.0001983642578 C -2109.55224609375 -106.0001983642578 -2109.999755859375 -106.4475021362305 -2109.999755859375 -107.0000991821289 C -2109.999755859375 -107.5527038574219 -2109.55224609375 -108 -2108.999755859375 -108 C -2108.447998046875 -108 -2107.999755859375 -107.5527038574219 -2107.999755859375 -107.0000991821289 C -2107.999755859375 -106.4475021362305 -2108.447998046875 -106.0001983642578 -2108.999755859375 -106.0001983642578 Z" stroke="none" fill="#fff"/>
        </g>
      </g>
      <g id="settings-work-tool" transform="translate(1042.997 300)">
        <g id="Group_8" data-name="Group 8" transform="translate(0.003 0)">
          <path id="Path_9" data-name="Path 9" d="M15.288,6.816a.5.5,0,0,0-.493-.378,1.693,1.693,0,0,1-1.159-2.946.426.426,0,0,0,.047-.578,7.586,7.586,0,0,0-1.215-1.227.427.427,0,0,0-.583.047,1.767,1.767,0,0,1-1.912.43A1.7,1.7,0,0,1,8.938.5.425.425,0,0,0,8.562.051a7.654,7.654,0,0,0-1.725,0,.427.427,0,0,0-.38.439,1.706,1.706,0,0,1-1.05,1.636,1.772,1.772,0,0,1-1.9-.432.428.428,0,0,0-.579-.049,7.615,7.615,0,0,0-1.24,1.226.427.427,0,0,0,.046.583,1.7,1.7,0,0,1,.429,1.913A1.772,1.772,0,0,1,.5,6.4a.417.417,0,0,0-.443.376,7.68,7.68,0,0,0,0,1.744.507.507,0,0,0,.5.377A1.681,1.681,0,0,1,2.131,9.946a1.7,1.7,0,0,1-.429,1.9.426.426,0,0,0-.047.578,7.614,7.614,0,0,0,1.213,1.227.426.426,0,0,0,.584-.046,1.764,1.764,0,0,1,1.911-.43A1.7,1.7,0,0,1,6.4,14.834a.426.426,0,0,0,.376.448,7.63,7.63,0,0,0,1.725,0,.427.427,0,0,0,.38-.439A1.7,1.7,0,0,1,9.93,13.213a1.769,1.769,0,0,1,1.9.432.428.428,0,0,0,.579.048,7.632,7.632,0,0,0,1.24-1.226.426.426,0,0,0-.046-.583,1.7,1.7,0,0,1-.43-1.913,1.716,1.716,0,0,1,1.568-1.039l.095,0a.427.427,0,0,0,.449-.376A7.674,7.674,0,0,0,15.288,6.816ZM7.681,10.24a2.557,2.557,0,1,1,2.557-2.557A2.56,2.56,0,0,1,7.681,10.24Z" transform="translate(-0.003 0)" fill="#fff" fill-rule="evenodd"/>
        </g>
      </g>
      <g id="coin" transform="translate(1043.938 345.938)">
        <g id="Group_7" data-name="Group 7" transform="translate(0)">
          <path id="Path_8" data-name="Path 8" d="M12,2.059A7.031,7.031,0,0,0,2.059,12,7.031,7.031,0,0,0,12,2.059ZM7.473,10.091H7.443V11a.412.412,0,1,1-.824,0v-.912H5.707a.412.412,0,1,1,0-.824H7.473a.912.912,0,0,0,0-1.824H6.59a1.736,1.736,0,0,1,0-3.472h.029V3.06a.412.412,0,0,1,.824,0v.912h.912a.412.412,0,1,1,0,.824H6.59a.912.912,0,0,0,0,1.824h.883a1.736,1.736,0,0,1,0,3.472Z" transform="translate(0)" fill="#fff"/>
        </g>
      </g>
      <g id="invoice_1_" data-name="invoice (1)" transform="translate(980 389)">
        <g id="Group_4" data-name="Group 4" transform="translate(64)">
          <path id="Subtraction_3" data-name="Subtraction 3" d="M-1031.546-372.875h-10.9a1.558,1.558,0,0,1-1.557-1.556v-13.011a1.559,1.559,0,0,1,1.557-1.557h8.173a.388.388,0,0,1,.276.114l3.891,3.891a.388.388,0,0,1,.114.276v10.287A1.558,1.558,0,0,1-1031.546-372.875ZM-1041.5-377a.5.5,0,0,0-.5.5.5.5,0,0,0,.5.5h7a.5.5,0,0,0,.5-.5.5.5,0,0,0-.5-.5Zm0-3a.5.5,0,0,0-.5.5.5.5,0,0,0,.5.5h9a.5.5,0,0,0,.5-.5.5.5,0,0,0-.5-.5Zm.224-2.773a.389.389,0,0,0-.389.389.39.39,0,0,0,.389.39h.39a.392.392,0,0,0,.113.275.387.387,0,0,0,.275.114.39.39,0,0,0,.39-.389v-.072a1.168,1.168,0,0,0,.778-1.1,1.169,1.169,0,0,0-1.167-1.168.389.389,0,0,1-.389-.389.39.39,0,0,1,.389-.39h.778a.389.389,0,0,0,.389-.389.39.39,0,0,0-.389-.39h-.389a.392.392,0,0,0-.113-.275.388.388,0,0,0-.276-.114.389.389,0,0,0-.389.389v.072a1.167,1.167,0,0,0-.779,1.1,1.169,1.169,0,0,0,1.167,1.167.39.39,0,0,1,.39.39.39.39,0,0,1-.39.389Zm3.776-.228a.5.5,0,0,0-.5.5.5.5,0,0,0,.5.5h3a.5.5,0,0,0,.5-.5.5.5,0,0,0-.5-.5Zm3.62-4.671v1.785a.779.779,0,0,0,.778.779h1.785Z" transform="translate(1044 389)" fill="#fff"/>
        </g>
      </g>
    </g>
    <g id="Group_29" data-name="Group 29" transform="translate(-963 -143)">
      <path id="Forma_1-2" data-name="Forma 1" d="M29,86.81v-8h6v8Zm-8,0v-4h6v4Zm0-6v-8h6v8Zm8-4v-4h6v4Z" transform="translate(1023 94.19)" fill="#03d8d7"/>
      <g id="man-user_1_2" data-name="man-user (1)" transform="translate(1002.105 210)">
        <path id="Path_16-2" data-name="Path 16" d="M108.225,8.963c2.038,0,3.689-2.006,3.689-4.481S111.372,0,108.225,0s-3.69,2.006-3.69,4.481S106.187,8.963,108.225,8.963Z" transform="translate(-59.36)" fill="#03d8d7"/>
        <path id="Path_17-2" data-name="Path 17" d="M41.9,300.449c0-.151,0-.043,0,0Z" transform="translate(0 -284.645)" fill="#03d8d7"/>
        <path id="Path_18-2" data-name="Path 18" d="M308.085,301.623c0-.041,0-.287,0,0Z" transform="translate(-252.252 -285.7)" fill="#03d8d7"/>
        <path id="Path_19-2" data-name="Path 19" d="M55.837,182.044c-.068-4.311-.631-3.527-4.94-4.3a3.027,3.027,0,0,1-4.041,0c-4.262.769-4.859-.034-4.938,4.164-.006.343-.009.361-.011.321,0,.075,0,.212,0,.453,0,0,1.026,2.068,6.968,2.068s6.968-2.068,6.968-2.068c0-.155,0-.262,0-.335A2.775,2.775,0,0,1,55.837,182.044Z" transform="translate(-0.012 -168.434)" fill="#03d8d7"/>
      </g>
      <g id="Group_27-2" data-name="Group 27" transform="translate(1023 185)">
        <g id="calendar-day-15-2" data-name="calendar-day-15" transform="translate(20.284 72)">
          <g id="Group_9-2" data-name="Group 9" transform="translate(0.716 0)">
            <path id="Path_12-2" data-name="Path 12" d="M13.285,2.636v.725A1.34,1.34,0,0,1,11.955,4.7h-.068A1.346,1.346,0,0,1,10.55,3.361V2.54H9.095c-.035.025-3.16-.007-2.735,0H4.881v.821A1.329,1.329,0,0,1,3.564,4.7H3.5A1.335,1.335,0,0,1,2.171,3.361V2.647A2.116,2.116,0,0,0,.716,4.665V13.12a2.115,2.115,0,0,0,2.122,2.117h9.806a2.113,2.113,0,0,0,2.119-2.117V4.665A2.128,2.128,0,0,0,13.285,2.636Zm.426,10.289a1.229,1.229,0,0,1-1.226,1.233H3A1.231,1.231,0,0,1,1.77,12.925V7.208a.829.829,0,0,1,.835-.83H12.878a.827.827,0,0,1,.833.83v5.717Z" transform="translate(-0.716 -1.737)" fill="#03d8d7"/>
            <path id="Path_13-2" data-name="Path 13" d="M8,2.309h.067a.683.683,0,0,0,.524-.236.675.675,0,0,0,.166-.447h0V.686h0A.69.69,0,0,0,8.557.2s0,0,0,0,0,0,0,0A.686.686,0,0,0,8.065,0H8a.687.687,0,0,0-.488.2s0,0,0,0L7.5.2a.69.69,0,0,0-.2.486h0v.941h0a.679.679,0,0,0,.17.447A.691.691,0,0,0,8,2.309Z" transform="translate(-5.217 -0.002)" fill="#03d8d7"/>
            <path id="Path_15-2" data-name="Path 15" d="M34.549,2.308h.067a.7.7,0,0,0,.531-.236.681.681,0,0,0,.173-.447h0V.685h0a.7.7,0,0,0-.365-.609l-.006,0L34.9.049l-.009,0L34.874.04,34.855.033l-.01,0c-.007,0-.015,0-.022,0A.692.692,0,0,0,34.617,0H34.55a.664.664,0,0,0-.1,0,.685.685,0,0,0-.584.681v.941A.677.677,0,0,0,34.549,2.308Z" transform="translate(-23.378 0)" fill="#03d8d7"/>
          </g>
        </g>
        <g id="Union_3-2" data-name="Union 3" transform="translate(2133 186)" fill="#03d8d7">
          <path d="M -2100.999755859375 -103.5005035400391 C -2101.275390625 -103.5005035400391 -2101.49951171875 -103.7247543334961 -2101.49951171875 -104.0004043579102 C -2101.49951171875 -104.2760543823242 -2101.275390625 -104.5003051757813 -2100.999755859375 -104.5003051757813 C -2100.72412109375 -104.5003051757813 -2100.499755859375 -104.2760543823242 -2100.499755859375 -104.0004043579102 C -2100.499755859375 -103.7247543334961 -2100.72412109375 -103.5005035400391 -2100.999755859375 -103.5005035400391 Z M -2105.000244140625 -103.5005035400391 C -2105.27587890625 -103.5005035400391 -2105.5 -103.7247543334961 -2105.5 -104.0004043579102 C -2105.5 -104.2760543823242 -2105.27587890625 -104.5003051757813 -2105.000244140625 -104.5003051757813 C -2104.724609375 -104.5003051757813 -2104.500244140625 -104.2760543823242 -2104.500244140625 -104.0004043579102 C -2104.500244140625 -103.7247543334961 -2104.724609375 -103.5005035400391 -2105.000244140625 -103.5005035400391 Z M -2108.999755859375 -103.5005035400391 C -2109.275390625 -103.5005035400391 -2109.499755859375 -103.7247543334961 -2109.499755859375 -104.0004043579102 C -2109.499755859375 -104.2760543823242 -2109.275390625 -104.5003051757813 -2108.999755859375 -104.5003051757813 C -2108.72412109375 -104.5003051757813 -2108.499755859375 -104.2760543823242 -2108.499755859375 -104.0004043579102 C -2108.499755859375 -103.7247543334961 -2108.72412109375 -103.5005035400391 -2108.999755859375 -103.5005035400391 Z M -2100.999755859375 -106.5001983642578 C -2101.275390625 -106.5001983642578 -2101.49951171875 -106.7244491577148 -2101.49951171875 -107.0000991821289 C -2101.49951171875 -107.275749206543 -2101.275390625 -107.5 -2100.999755859375 -107.5 C -2100.72412109375 -107.5 -2100.499755859375 -107.275749206543 -2100.499755859375 -107.0000991821289 C -2100.499755859375 -106.7244491577148 -2100.72412109375 -106.5001983642578 -2100.999755859375 -106.5001983642578 Z M -2105.000244140625 -106.5001983642578 C -2105.27587890625 -106.5001983642578 -2105.5 -106.7244491577148 -2105.5 -107.0000991821289 C -2105.5 -107.275749206543 -2105.27587890625 -107.5 -2105.000244140625 -107.5 C -2104.724609375 -107.5 -2104.500244140625 -107.275749206543 -2104.500244140625 -107.0000991821289 C -2104.500244140625 -106.7244491577148 -2104.724609375 -106.5001983642578 -2105.000244140625 -106.5001983642578 Z M -2108.999755859375 -106.5001983642578 C -2109.275390625 -106.5001983642578 -2109.499755859375 -106.7244491577148 -2109.499755859375 -107.0000991821289 C -2109.499755859375 -107.275749206543 -2109.275390625 -107.5 -2108.999755859375 -107.5 C -2108.72412109375 -107.5 -2108.499755859375 -107.275749206543 -2108.499755859375 -107.0000991821289 C -2108.499755859375 -106.7244491577148 -2108.72412109375 -106.5001983642578 -2108.999755859375 -106.5001983642578 Z" stroke="none"/>
          <path d="M -2100.999755859375 -103.0005035400391 C -2101.55224609375 -103.0005035400391 -2101.99951171875 -103.4477996826172 -2101.99951171875 -104.0004043579102 C -2101.99951171875 -104.5530014038086 -2101.55224609375 -105.0003051757813 -2100.999755859375 -105.0003051757813 C -2100.447998046875 -105.0003051757813 -2099.999755859375 -104.5530014038086 -2099.999755859375 -104.0004043579102 C -2099.999755859375 -103.4477996826172 -2100.447998046875 -103.0005035400391 -2100.999755859375 -103.0005035400391 Z M -2105.000244140625 -103.0005035400391 C -2105.5517578125 -103.0005035400391 -2106 -103.4477996826172 -2106 -104.0004043579102 C -2106 -104.5530014038086 -2105.5517578125 -105.0003051757813 -2105.000244140625 -105.0003051757813 C -2104.447509765625 -105.0003051757813 -2104.000244140625 -104.5530014038086 -2104.000244140625 -104.0004043579102 C -2104.000244140625 -103.4477996826172 -2104.447509765625 -103.0005035400391 -2105.000244140625 -103.0005035400391 Z M -2108.999755859375 -103.0005035400391 C -2109.55224609375 -103.0005035400391 -2109.999755859375 -103.4477996826172 -2109.999755859375 -104.0004043579102 C -2109.999755859375 -104.5530014038086 -2109.55224609375 -105.0003051757813 -2108.999755859375 -105.0003051757813 C -2108.447998046875 -105.0003051757813 -2107.999755859375 -104.5530014038086 -2107.999755859375 -104.0004043579102 C -2107.999755859375 -103.4477996826172 -2108.447998046875 -103.0005035400391 -2108.999755859375 -103.0005035400391 Z M -2100.999755859375 -106.0001983642578 C -2101.55224609375 -106.0001983642578 -2101.99951171875 -106.4475021362305 -2101.99951171875 -107.0000991821289 C -2101.99951171875 -107.5527038574219 -2101.55224609375 -108 -2100.999755859375 -108 C -2100.447998046875 -108 -2099.999755859375 -107.5527038574219 -2099.999755859375 -107.0000991821289 C -2099.999755859375 -106.4475021362305 -2100.447998046875 -106.0001983642578 -2100.999755859375 -106.0001983642578 Z M -2105.000244140625 -106.0001983642578 C -2105.5517578125 -106.0001983642578 -2106 -106.4475021362305 -2106 -107.0000991821289 C -2106 -107.5527038574219 -2105.5517578125 -108 -2105.000244140625 -108 C -2104.447509765625 -108 -2104.000244140625 -107.5527038574219 -2104.000244140625 -107.0000991821289 C -2104.000244140625 -106.4475021362305 -2104.447509765625 -106.0001983642578 -2105.000244140625 -106.0001983642578 Z M -2108.999755859375 -106.0001983642578 C -2109.55224609375 -106.0001983642578 -2109.999755859375 -106.4475021362305 -2109.999755859375 -107.0000991821289 C -2109.999755859375 -107.5527038574219 -2109.55224609375 -108 -2108.999755859375 -108 C -2108.447998046875 -108 -2107.999755859375 -107.5527038574219 -2107.999755859375 -107.0000991821289 C -2107.999755859375 -106.4475021362305 -2108.447998046875 -106.0001983642578 -2108.999755859375 -106.0001983642578 Z" stroke="none" fill="#03d8d7"/>
        </g>
      </g>
      <g id="settings-work-tool-2" data-name="settings-work-tool" transform="translate(1042.997 300)">
        <g id="Group_8-2" data-name="Group 8" transform="translate(0.003 0)">
          <path id="Path_9-2" data-name="Path 9" d="M15.288,6.816a.5.5,0,0,0-.493-.378,1.693,1.693,0,0,1-1.159-2.946.426.426,0,0,0,.047-.578,7.586,7.586,0,0,0-1.215-1.227.427.427,0,0,0-.583.047,1.767,1.767,0,0,1-1.912.43A1.7,1.7,0,0,1,8.938.5.425.425,0,0,0,8.562.051a7.654,7.654,0,0,0-1.725,0,.427.427,0,0,0-.38.439,1.706,1.706,0,0,1-1.05,1.636,1.772,1.772,0,0,1-1.9-.432.428.428,0,0,0-.579-.049,7.615,7.615,0,0,0-1.24,1.226.427.427,0,0,0,.046.583,1.7,1.7,0,0,1,.429,1.913A1.772,1.772,0,0,1,.5,6.4a.417.417,0,0,0-.443.376,7.68,7.68,0,0,0,0,1.744.507.507,0,0,0,.5.377A1.681,1.681,0,0,1,2.131,9.946a1.7,1.7,0,0,1-.429,1.9.426.426,0,0,0-.047.578,7.614,7.614,0,0,0,1.213,1.227.426.426,0,0,0,.584-.046,1.764,1.764,0,0,1,1.911-.43A1.7,1.7,0,0,1,6.4,14.834a.426.426,0,0,0,.376.448,7.63,7.63,0,0,0,1.725,0,.427.427,0,0,0,.38-.439A1.7,1.7,0,0,1,9.93,13.213a1.769,1.769,0,0,1,1.9.432.428.428,0,0,0,.579.048,7.632,7.632,0,0,0,1.24-1.226.426.426,0,0,0-.046-.583,1.7,1.7,0,0,1-.43-1.913,1.716,1.716,0,0,1,1.568-1.039l.095,0a.427.427,0,0,0,.449-.376A7.674,7.674,0,0,0,15.288,6.816ZM7.681,10.24a2.557,2.557,0,1,1,2.557-2.557A2.56,2.56,0,0,1,7.681,10.24Z" transform="translate(-0.003 0)" fill="#03d8d7" fill-rule="evenodd"/>
        </g>
      </g>
      <g id="coin-2" data-name="coin" transform="translate(1043.938 345.938)">
        <g id="Group_7-2" data-name="Group 7" transform="translate(0)">
          <path id="Path_8-2" data-name="Path 8" d="M12,2.059A7.031,7.031,0,0,0,2.059,12,7.031,7.031,0,0,0,12,2.059ZM7.473,10.091H7.443V11a.412.412,0,1,1-.824,0v-.912H5.707a.412.412,0,1,1,0-.824H7.473a.912.912,0,0,0,0-1.824H6.59a1.736,1.736,0,0,1,0-3.472h.029V3.06a.412.412,0,0,1,.824,0v.912h.912a.412.412,0,1,1,0,.824H6.59a.912.912,0,0,0,0,1.824h.883a1.736,1.736,0,0,1,0,3.472Z" transform="translate(0)" fill="#03d8d7"/>
        </g>
      </g>
      <g id="invoice_1_2" data-name="invoice (1)" transform="translate(980 389)">
        <g id="Group_4-2" data-name="Group 4" transform="translate(64)">
          <path id="Subtraction_3-2" data-name="Subtraction 3" d="M-1031.546-372.875h-10.9a1.558,1.558,0,0,1-1.557-1.556v-13.011a1.559,1.559,0,0,1,1.557-1.557h8.173a.388.388,0,0,1,.276.114l3.891,3.891a.388.388,0,0,1,.114.276v10.287A1.558,1.558,0,0,1-1031.546-372.875ZM-1041.5-377a.5.5,0,0,0-.5.5.5.5,0,0,0,.5.5h7a.5.5,0,0,0,.5-.5.5.5,0,0,0-.5-.5Zm0-3a.5.5,0,0,0-.5.5.5.5,0,0,0,.5.5h9a.5.5,0,0,0,.5-.5.5.5,0,0,0-.5-.5Zm.224-2.773a.389.389,0,0,0-.389.389.39.39,0,0,0,.389.39h.39a.392.392,0,0,0,.113.275.387.387,0,0,0,.275.114.39.39,0,0,0,.39-.389v-.072a1.168,1.168,0,0,0,.778-1.1,1.169,1.169,0,0,0-1.167-1.168.389.389,0,0,1-.389-.389.39.39,0,0,1,.389-.39h.778a.389.389,0,0,0,.389-.389.39.39,0,0,0-.389-.39h-.389a.392.392,0,0,0-.113-.275.388.388,0,0,0-.276-.114.389.389,0,0,0-.389.389v.072a1.167,1.167,0,0,0-.779,1.1,1.169,1.169,0,0,0,1.167,1.167.39.39,0,0,1,.39.39.39.39,0,0,1-.39.389Zm3.776-.228a.5.5,0,0,0-.5.5.5.5,0,0,0,.5.5h3a.5.5,0,0,0,.5-.5.5.5,0,0,0-.5-.5Zm3.62-4.671v1.785a.779.779,0,0,0,.778.779h1.785Z" transform="translate(1044 389)" fill="#03d8d7"/>
        </g>
      </g>
    </g>
    <g id="Group_30" data-name="Group 30" transform="translate(-1013 -143)">
      <path id="Forma_1-3" data-name="Forma 1" d="M29,86.81v-8h6v8Zm-8,0v-4h6v4Zm0-6v-8h6v8Zm8-4v-4h6v4Z" transform="translate(1023 94.19)" fill="#4d4d4d"/>
      <g id="man-user_1_3" data-name="man-user (1)" transform="translate(1002.105 210)">
        <path id="Path_16-3" data-name="Path 16" d="M108.225,8.963c2.038,0,3.689-2.006,3.689-4.481S111.372,0,108.225,0s-3.69,2.006-3.69,4.481S106.187,8.963,108.225,8.963Z" transform="translate(-59.36)" fill="#4d4d4d"/>
        <path id="Path_17-3" data-name="Path 17" d="M41.9,300.449c0-.151,0-.043,0,0Z" transform="translate(0 -284.645)" fill="#4d4d4d"/>
        <path id="Path_18-3" data-name="Path 18" d="M308.085,301.623c0-.041,0-.287,0,0Z" transform="translate(-252.252 -285.7)" fill="#4d4d4d"/>
        <path id="Path_19-3" data-name="Path 19" d="M55.837,182.044c-.068-4.311-.631-3.527-4.94-4.3a3.027,3.027,0,0,1-4.041,0c-4.262.769-4.859-.034-4.938,4.164-.006.343-.009.361-.011.321,0,.075,0,.212,0,.453,0,0,1.026,2.068,6.968,2.068s6.968-2.068,6.968-2.068c0-.155,0-.262,0-.335A2.775,2.775,0,0,1,55.837,182.044Z" transform="translate(-0.012 -168.434)" fill="#4d4d4d"/>
      </g>
      <g id="Group_27-3" data-name="Group 27" transform="translate(1023 185)">
        <g id="calendar-day-15-3" data-name="calendar-day-15" transform="translate(20.284 72)">
          <g id="Group_9-3" data-name="Group 9" transform="translate(0.716 0)">
            <path id="Path_12-3" data-name="Path 12" d="M13.285,2.636v.725A1.34,1.34,0,0,1,11.955,4.7h-.068A1.346,1.346,0,0,1,10.55,3.361V2.54H9.095c-.035.025-3.16-.007-2.735,0H4.881v.821A1.329,1.329,0,0,1,3.564,4.7H3.5A1.335,1.335,0,0,1,2.171,3.361V2.647A2.116,2.116,0,0,0,.716,4.665V13.12a2.115,2.115,0,0,0,2.122,2.117h9.806a2.113,2.113,0,0,0,2.119-2.117V4.665A2.128,2.128,0,0,0,13.285,2.636Zm.426,10.289a1.229,1.229,0,0,1-1.226,1.233H3A1.231,1.231,0,0,1,1.77,12.925V7.208a.829.829,0,0,1,.835-.83H12.878a.827.827,0,0,1,.833.83v5.717Z" transform="translate(-0.716 -1.737)" fill="#4d4d4d"/>
            <path id="Path_13-3" data-name="Path 13" d="M8,2.309h.067a.683.683,0,0,0,.524-.236.675.675,0,0,0,.166-.447h0V.686h0A.69.69,0,0,0,8.557.2s0,0,0,0,0,0,0,0A.686.686,0,0,0,8.065,0H8a.687.687,0,0,0-.488.2s0,0,0,0L7.5.2a.69.69,0,0,0-.2.486h0v.941h0a.679.679,0,0,0,.17.447A.691.691,0,0,0,8,2.309Z" transform="translate(-5.217 -0.002)" fill="#4d4d4d"/>
            <path id="Path_15-3" data-name="Path 15" d="M34.549,2.308h.067a.7.7,0,0,0,.531-.236.681.681,0,0,0,.173-.447h0V.685h0a.7.7,0,0,0-.365-.609l-.006,0L34.9.049l-.009,0L34.874.04,34.855.033l-.01,0c-.007,0-.015,0-.022,0A.692.692,0,0,0,34.617,0H34.55a.664.664,0,0,0-.1,0,.685.685,0,0,0-.584.681v.941A.677.677,0,0,0,34.549,2.308Z" transform="translate(-23.378 0)" fill="#4d4d4d"/>
          </g>
        </g>
        <g id="Union_3-3" data-name="Union 3" transform="translate(2133 186)" fill="#4d4d4d">
          <path d="M -2100.999755859375 -103.5005035400391 C -2101.275390625 -103.5005035400391 -2101.49951171875 -103.7247543334961 -2101.49951171875 -104.0004043579102 C -2101.49951171875 -104.2760543823242 -2101.275390625 -104.5003051757813 -2100.999755859375 -104.5003051757813 C -2100.72412109375 -104.5003051757813 -2100.499755859375 -104.2760543823242 -2100.499755859375 -104.0004043579102 C -2100.499755859375 -103.7247543334961 -2100.72412109375 -103.5005035400391 -2100.999755859375 -103.5005035400391 Z M -2105.000244140625 -103.5005035400391 C -2105.27587890625 -103.5005035400391 -2105.5 -103.7247543334961 -2105.5 -104.0004043579102 C -2105.5 -104.2760543823242 -2105.27587890625 -104.5003051757813 -2105.000244140625 -104.5003051757813 C -2104.724609375 -104.5003051757813 -2104.500244140625 -104.2760543823242 -2104.500244140625 -104.0004043579102 C -2104.500244140625 -103.7247543334961 -2104.724609375 -103.5005035400391 -2105.000244140625 -103.5005035400391 Z M -2108.999755859375 -103.5005035400391 C -2109.275390625 -103.5005035400391 -2109.499755859375 -103.7247543334961 -2109.499755859375 -104.0004043579102 C -2109.499755859375 -104.2760543823242 -2109.275390625 -104.5003051757813 -2108.999755859375 -104.5003051757813 C -2108.72412109375 -104.5003051757813 -2108.499755859375 -104.2760543823242 -2108.499755859375 -104.0004043579102 C -2108.499755859375 -103.7247543334961 -2108.72412109375 -103.5005035400391 -2108.999755859375 -103.5005035400391 Z M -2100.999755859375 -106.5001983642578 C -2101.275390625 -106.5001983642578 -2101.49951171875 -106.7244491577148 -2101.49951171875 -107.0000991821289 C -2101.49951171875 -107.275749206543 -2101.275390625 -107.5 -2100.999755859375 -107.5 C -2100.72412109375 -107.5 -2100.499755859375 -107.275749206543 -2100.499755859375 -107.0000991821289 C -2100.499755859375 -106.7244491577148 -2100.72412109375 -106.5001983642578 -2100.999755859375 -106.5001983642578 Z M -2105.000244140625 -106.5001983642578 C -2105.27587890625 -106.5001983642578 -2105.5 -106.7244491577148 -2105.5 -107.0000991821289 C -2105.5 -107.275749206543 -2105.27587890625 -107.5 -2105.000244140625 -107.5 C -2104.724609375 -107.5 -2104.500244140625 -107.275749206543 -2104.500244140625 -107.0000991821289 C -2104.500244140625 -106.7244491577148 -2104.724609375 -106.5001983642578 -2105.000244140625 -106.5001983642578 Z M -2108.999755859375 -106.5001983642578 C -2109.275390625 -106.5001983642578 -2109.499755859375 -106.7244491577148 -2109.499755859375 -107.0000991821289 C -2109.499755859375 -107.275749206543 -2109.275390625 -107.5 -2108.999755859375 -107.5 C -2108.72412109375 -107.5 -2108.499755859375 -107.275749206543 -2108.499755859375 -107.0000991821289 C -2108.499755859375 -106.7244491577148 -2108.72412109375 -106.5001983642578 -2108.999755859375 -106.5001983642578 Z" stroke="none"/>
          <path d="M -2100.999755859375 -103.0005035400391 C -2101.55224609375 -103.0005035400391 -2101.99951171875 -103.4477996826172 -2101.99951171875 -104.0004043579102 C -2101.99951171875 -104.5530014038086 -2101.55224609375 -105.0003051757813 -2100.999755859375 -105.0003051757813 C -2100.447998046875 -105.0003051757813 -2099.999755859375 -104.5530014038086 -2099.999755859375 -104.0004043579102 C -2099.999755859375 -103.4477996826172 -2100.447998046875 -103.0005035400391 -2100.999755859375 -103.0005035400391 Z M -2105.000244140625 -103.0005035400391 C -2105.5517578125 -103.0005035400391 -2106 -103.4477996826172 -2106 -104.0004043579102 C -2106 -104.5530014038086 -2105.5517578125 -105.0003051757813 -2105.000244140625 -105.0003051757813 C -2104.447509765625 -105.0003051757813 -2104.000244140625 -104.5530014038086 -2104.000244140625 -104.0004043579102 C -2104.000244140625 -103.4477996826172 -2104.447509765625 -103.0005035400391 -2105.000244140625 -103.0005035400391 Z M -2108.999755859375 -103.0005035400391 C -2109.55224609375 -103.0005035400391 -2109.999755859375 -103.4477996826172 -2109.999755859375 -104.0004043579102 C -2109.999755859375 -104.5530014038086 -2109.55224609375 -105.0003051757813 -2108.999755859375 -105.0003051757813 C -2108.447998046875 -105.0003051757813 -2107.999755859375 -104.5530014038086 -2107.999755859375 -104.0004043579102 C -2107.999755859375 -103.4477996826172 -2108.447998046875 -103.0005035400391 -2108.999755859375 -103.0005035400391 Z M -2100.999755859375 -106.0001983642578 C -2101.55224609375 -106.0001983642578 -2101.99951171875 -106.4475021362305 -2101.99951171875 -107.0000991821289 C -2101.99951171875 -107.5527038574219 -2101.55224609375 -108 -2100.999755859375 -108 C -2100.447998046875 -108 -2099.999755859375 -107.5527038574219 -2099.999755859375 -107.0000991821289 C -2099.999755859375 -106.4475021362305 -2100.447998046875 -106.0001983642578 -2100.999755859375 -106.0001983642578 Z M -2105.000244140625 -106.0001983642578 C -2105.5517578125 -106.0001983642578 -2106 -106.4475021362305 -2106 -107.0000991821289 C -2106 -107.5527038574219 -2105.5517578125 -108 -2105.000244140625 -108 C -2104.447509765625 -108 -2104.000244140625 -107.5527038574219 -2104.000244140625 -107.0000991821289 C -2104.000244140625 -106.4475021362305 -2104.447509765625 -106.0001983642578 -2105.000244140625 -106.0001983642578 Z M -2108.999755859375 -106.0001983642578 C -2109.55224609375 -106.0001983642578 -2109.999755859375 -106.4475021362305 -2109.999755859375 -107.0000991821289 C -2109.999755859375 -107.5527038574219 -2109.55224609375 -108 -2108.999755859375 -108 C -2108.447998046875 -108 -2107.999755859375 -107.5527038574219 -2107.999755859375 -107.0000991821289 C -2107.999755859375 -106.4475021362305 -2108.447998046875 -106.0001983642578 -2108.999755859375 -106.0001983642578 Z" stroke="none" fill="#4d4d4d"/>
        </g>
      </g>
      <g id="settings-work-tool-3" data-name="settings-work-tool" transform="translate(1042.997 300)">
        <g id="Group_8-3" data-name="Group 8" transform="translate(0.003 0)">
          <path id="Path_9-3" data-name="Path 9" d="M15.288,6.816a.5.5,0,0,0-.493-.378,1.693,1.693,0,0,1-1.159-2.946.426.426,0,0,0,.047-.578,7.586,7.586,0,0,0-1.215-1.227.427.427,0,0,0-.583.047,1.767,1.767,0,0,1-1.912.43A1.7,1.7,0,0,1,8.938.5.425.425,0,0,0,8.562.051a7.654,7.654,0,0,0-1.725,0,.427.427,0,0,0-.38.439,1.706,1.706,0,0,1-1.05,1.636,1.772,1.772,0,0,1-1.9-.432.428.428,0,0,0-.579-.049,7.615,7.615,0,0,0-1.24,1.226.427.427,0,0,0,.046.583,1.7,1.7,0,0,1,.429,1.913A1.772,1.772,0,0,1,.5,6.4a.417.417,0,0,0-.443.376,7.68,7.68,0,0,0,0,1.744.507.507,0,0,0,.5.377A1.681,1.681,0,0,1,2.131,9.946a1.7,1.7,0,0,1-.429,1.9.426.426,0,0,0-.047.578,7.614,7.614,0,0,0,1.213,1.227.426.426,0,0,0,.584-.046,1.764,1.764,0,0,1,1.911-.43A1.7,1.7,0,0,1,6.4,14.834a.426.426,0,0,0,.376.448,7.63,7.63,0,0,0,1.725,0,.427.427,0,0,0,.38-.439A1.7,1.7,0,0,1,9.93,13.213a1.769,1.769,0,0,1,1.9.432.428.428,0,0,0,.579.048,7.632,7.632,0,0,0,1.24-1.226.426.426,0,0,0-.046-.583,1.7,1.7,0,0,1-.43-1.913,1.716,1.716,0,0,1,1.568-1.039l.095,0a.427.427,0,0,0,.449-.376A7.674,7.674,0,0,0,15.288,6.816ZM7.681,10.24a2.557,2.557,0,1,1,2.557-2.557A2.56,2.56,0,0,1,7.681,10.24Z" transform="translate(-0.003 0)" fill="#4d4d4d" fill-rule="evenodd"/>
        </g>
      </g>
      <g id="coin-3" data-name="coin" transform="translate(1043.938 345.938)">
        <g id="Group_7-3" data-name="Group 7" transform="translate(0)">
          <path id="Path_8-3" data-name="Path 8" d="M12,2.059A7.031,7.031,0,0,0,2.059,12,7.031,7.031,0,0,0,12,2.059ZM7.473,10.091H7.443V11a.412.412,0,1,1-.824,0v-.912H5.707a.412.412,0,1,1,0-.824H7.473a.912.912,0,0,0,0-1.824H6.59a1.736,1.736,0,0,1,0-3.472h.029V3.06a.412.412,0,0,1,.824,0v.912h.912a.412.412,0,1,1,0,.824H6.59a.912.912,0,0,0,0,1.824h.883a1.736,1.736,0,0,1,0,3.472Z" transform="translate(0)" fill="#4d4d4d"/>
        </g>
      </g>
      <g id="invoice_1_3" data-name="invoice (1)" transform="translate(980 389)">
        <g id="Group_4-3" data-name="Group 4" transform="translate(64)">
          <path id="Subtraction_3-3" data-name="Subtraction 3" d="M-1031.546-372.875h-10.9a1.558,1.558,0,0,1-1.557-1.556v-13.011a1.559,1.559,0,0,1,1.557-1.557h8.173a.388.388,0,0,1,.276.114l3.891,3.891a.388.388,0,0,1,.114.276v10.287A1.558,1.558,0,0,1-1031.546-372.875ZM-1041.5-377a.5.5,0,0,0-.5.5.5.5,0,0,0,.5.5h7a.5.5,0,0,0,.5-.5.5.5,0,0,0-.5-.5Zm0-3a.5.5,0,0,0-.5.5.5.5,0,0,0,.5.5h9a.5.5,0,0,0,.5-.5.5.5,0,0,0-.5-.5Zm.224-2.773a.389.389,0,0,0-.389.389.39.39,0,0,0,.389.39h.39a.392.392,0,0,0,.113.275.387.387,0,0,0,.275.114.39.39,0,0,0,.39-.389v-.072a1.168,1.168,0,0,0,.778-1.1,1.169,1.169,0,0,0-1.167-1.168.389.389,0,0,1-.389-.389.39.39,0,0,1,.389-.39h.778a.389.389,0,0,0,.389-.389.39.39,0,0,0-.389-.39h-.389a.392.392,0,0,0-.113-.275.388.388,0,0,0-.276-.114.389.389,0,0,0-.389.389v.072a1.167,1.167,0,0,0-.779,1.1,1.169,1.169,0,0,0,1.167,1.167.39.39,0,0,1,.39.39.39.39,0,0,1-.39.389Zm3.776-.228a.5.5,0,0,0-.5.5.5.5,0,0,0,.5.5h3a.5.5,0,0,0,.5-.5.5.5,0,0,0-.5-.5Zm3.62-4.671v1.785a.779.779,0,0,0,.778.779h1.785Z" transform="translate(1044 389)" fill="#4d4d4d"/>
        </g>
      </g>
    </g>
    <g id="Group_31" data-name="Group 31" transform="translate(-1638 243)">
      <g id="Group_10" data-name="Group 10" transform="translate(0 2)">
        <path id="Path_26" data-name="Path 26" d="M0,0H13a1,1,0,0,1,0,2H0A1,1,0,0,1,0,0Z" transform="translate(1668 132)" fill="#4d4d4d"/>
        <g id="Rectangle_8" data-name="Rectangle 8" transform="translate(1671 131)" fill="#fff" stroke="#4d4d4d" stroke-width="1">
          <rect width="4" height="4" rx="2" stroke="none"/>
          <rect x="0.5" y="0.5" width="3" height="3" rx="1.5" fill="none"/>
        </g>
      </g>
      <g id="Group_12" data-name="Group 12" transform="translate(0 10)">
        <path id="Path_26-2" data-name="Path 26" d="M0,0H13a1,1,0,0,1,0,2H0A1,1,0,0,1,0,0Z" transform="translate(1668 132)" fill="#4d4d4d"/>
        <g id="Rectangle_8-2" data-name="Rectangle 8" transform="translate(1671 131)" fill="#fff" stroke="#4d4d4d" stroke-width="1">
          <rect width="4" height="4" rx="2" stroke="none"/>
          <rect x="0.5" y="0.5" width="3" height="3" rx="1.5" fill="none"/>
        </g>
      </g>
      <g id="Group_11" data-name="Group 11" transform="translate(0 6)">
        <path id="Path_26-3" data-name="Path 26" d="M0,0H13a1,1,0,0,1,0,2H0A1,1,0,0,1,0,0Z" transform="translate(1668 132)" fill="#4d4d4d"/>
        <g id="Rectangle_8-3" data-name="Rectangle 8" transform="translate(1675 131)" fill="#fff" stroke="#4d4d4d" stroke-width="1">
          <rect width="4" height="4" rx="2" stroke="none"/>
          <rect x="0.5" y="0.5" width="3" height="3" rx="1.5" fill="none"/>
        </g>
      </g>
    </g>
    <g id="Group_32" data-name="Group 32" transform="translate(-1584 243)">
      <g id="Group_10-2" data-name="Group 10" transform="translate(0 2)">
        <path id="Path_26-4" data-name="Path 26" d="M0,0H13a1,1,0,0,1,0,2H0A1,1,0,0,1,0,0Z" transform="translate(1668 132)" fill="#f04e37"/>
        <g id="Rectangle_8-4" data-name="Rectangle 8" transform="translate(1671 131)" fill="#fff" stroke="#f04e37" stroke-width="1">
          <rect width="4" height="4" rx="2" stroke="none"/>
          <rect x="0.5" y="0.5" width="3" height="3" rx="1.5" fill="none"/>
        </g>
      </g>
      <g id="Group_12-2" data-name="Group 12" transform="translate(0 10)">
        <path id="Path_26-5" data-name="Path 26" d="M0,0H13a1,1,0,0,1,0,2H0A1,1,0,0,1,0,0Z" transform="translate(1668 132)" fill="#f04e37"/>
        <g id="Rectangle_8-5" data-name="Rectangle 8" transform="translate(1671 131)" fill="#fff" stroke="#f04e37" stroke-width="1">
          <rect width="4" height="4" rx="2" stroke="none"/>
          <rect x="0.5" y="0.5" width="3" height="3" rx="1.5" fill="none"/>
        </g>
      </g>
      <g id="Group_11-2" data-name="Group 11" transform="translate(0 6)">
        <path id="Path_26-6" data-name="Path 26" d="M0,0H13a1,1,0,0,1,0,2H0A1,1,0,0,1,0,0Z" transform="translate(1668 132)" fill="#f04e37"/>
        <g id="Rectangle_8-6" data-name="Rectangle 8" transform="translate(1675 131)" fill="#fff" stroke="#f04e37" stroke-width="1">
          <rect width="4" height="4" rx="2" stroke="none"/>
          <rect x="0.5" y="0.5" width="3" height="3" rx="1.5" fill="none"/>
        </g>
      </g>
    </g>
    <g id="Group_33" data-name="Group 33" transform="translate(-694 -672)">
      <g id="calendar-with-a-clock-time-tools" transform="translate(724.999 964)">
        <path id="Path_27" data-name="Path 27" d="M1.822,2.277V.455a.455.455,0,0,1,.911,0V2.277a.455.455,0,0,1-.911,0Zm7.741.455a.455.455,0,0,0,.455-.455V.455a.455.455,0,0,0-.911,0V2.277A.455.455,0,0,0,9.564,2.732Zm5.009,8.2A3.643,3.643,0,1,1,10.93,7.286,3.643,3.643,0,0,1,14.572,10.928Zm-.911,0a2.732,2.732,0,1,0-2.732,2.732A2.735,2.735,0,0,0,13.662,10.928ZM3.644,5.464H1.822V7.286H3.644ZM1.822,10.018H3.644V8.2H1.822ZM4.555,7.286H6.376V5.464H4.555Zm0,2.732H6.376V8.2H4.555Zm-3.643.82V4.554H10.93V6.375h.911V2.823a.994.994,0,0,0-.986-1h-.38v.455a.911.911,0,1,1-1.821,0V1.821H3.188v.455a.911.911,0,1,1-1.821,0V1.821H.988a.994.994,0,0,0-.987,1v8.015a1,1,0,0,0,.987,1H6.376v-.911H.988A.086.086,0,0,1,.912,10.838Zm8.2-3.552V5.464H7.287V7.286Z" fill="#f04e37"/>
      </g>
      <g id="Group_13" data-name="Group 13" transform="translate(734 974)">
        <path id="Path_28" data-name="Path 28" d="M1.8,8.08a.4.4,0,0,1-.565,0L.358,7.2a.4.4,0,0,1,.565-.564l.521.521a.1.1,0,0,0,.143,0L3.029,5.546a.4.4,0,1,1,.565.564Z" transform="translate(0 -5.814)" fill="#f04e37"/>
      </g>
    </g>
    <g id="Group_37" data-name="Group 37" transform="translate(-694 -630)">
      <g id="calendar-with-a-clock-time-tools-2" data-name="calendar-with-a-clock-time-tools" transform="translate(724.999 964)">
        <path id="Path_27-2" data-name="Path 27" d="M1.822,2.277V.455a.455.455,0,0,1,.911,0V2.277a.455.455,0,0,1-.911,0Zm7.741.455a.455.455,0,0,0,.455-.455V.455a.455.455,0,0,0-.911,0V2.277A.455.455,0,0,0,9.564,2.732Zm5.009,8.2A3.643,3.643,0,1,1,10.93,7.286,3.643,3.643,0,0,1,14.572,10.928Zm-.911,0a2.732,2.732,0,1,0-2.732,2.732A2.735,2.735,0,0,0,13.662,10.928ZM3.644,5.464H1.822V7.286H3.644ZM1.822,10.018H3.644V8.2H1.822ZM4.555,7.286H6.376V5.464H4.555Zm0,2.732H6.376V8.2H4.555Zm-3.643.82V4.554H10.93V6.375h.911V2.823a.994.994,0,0,0-.986-1h-.38v.455a.911.911,0,1,1-1.821,0V1.821H3.188v.455a.911.911,0,1,1-1.821,0V1.821H.988a.994.994,0,0,0-.987,1v8.015a1,1,0,0,0,.987,1H6.376v-.911H.988A.086.086,0,0,1,.912,10.838Zm8.2-3.552V5.464H7.287V7.286Z" fill="#fff"/>
      </g>
      <g id="Group_13-2" data-name="Group 13" transform="translate(734 974)">
        <path id="Path_28-2" data-name="Path 28" d="M1.8,8.08a.4.4,0,0,1-.565,0L.358,7.2a.4.4,0,0,1,.565-.564l.521.521a.1.1,0,0,0,.143,0L3.029,5.546a.4.4,0,1,1,.565.564Z" transform="translate(0 -5.814)" fill="#fff"/>
      </g>
    </g>
    <g id="Group_34" data-name="Group 34" transform="translate(-672 -673.411)">
      <g id="pets-hotel-symbol-with-a-dog-and-a-cat-in-a-circle-with-one-star" transform="translate(758.107 967.795)">
        <g id="Group_17" data-name="Group 17" transform="translate(0 0)">
          <path id="Path_35" data-name="Path 35" d="M149.656,169.609s-.566.38-.767,2.227a2.553,2.553,0,0,0,2.955.956.229.229,0,0,0,.123-.158,7.392,7.392,0,0,0-1.4-3.663A2.452,2.452,0,0,0,149.656,169.609Z" transform="translate(-148.889 -168.97)" fill="#f04e37"/>
        </g>
      </g>
      <g id="Group_19" data-name="Group 19" transform="translate(753.755 967.411)">
        <path id="Path_36" data-name="Path 36" d="M50.525,108.187a.288.288,0,0,1,.175-.266l1.26-.473a.954.954,0,0,0,.837-.411,3.048,3.048,0,0,1,.325-.481.2.2,0,0,0-.009-.277,2.735,2.735,0,0,1-.824-1.212c-.066-.558-.853-1.018-1.871-1.083a1.637,1.637,0,0,1-.577-1.133c-.006-.109-.087-.217-.193-.19-.272.067-.734.416-.757,2.011a3.371,3.371,0,0,0-1.58,2.832c-.115-.069-.23-.137-.341-.213a4.239,4.239,0,0,1,.4-1.53,3.5,3.5,0,0,1,1.17-1.365c.058-1.575.569-2.035,1-2.14a.449.449,0,0,1,.378.077.545.545,0,0,1,.211.408,1.312,1.312,0,0,0,.391.838,3.807,3.807,0,0,1,.548.09l.016-.149.132-1.283a.513.513,0,0,1,.432-.43,2.891,2.891,0,0,0,2.759-2.572.51.51,0,0,0-.382-.487l-1.735-.424a.774.774,0,0,0-.542-.591,4.968,4.968,0,0,0-2.811-.585,7.472,7.472,0,0,1,1.4,3.8.607.607,0,0,1-.392.509,3.216,3.216,0,0,1-.992.158,2.877,2.877,0,0,1-2.133-.938q-.021.355-.023.769c-.008,1.428-1.822,2.783-1.822,2.783l-.217.449a5.493,5.493,0,0,0-2.2,2.964,10.562,10.562,0,0,0,0,2.017c.052.017,4.641.035,7.652,0a2.324,2.324,0,0,0,.3-.678A4.8,4.8,0,0,0,50.525,108.187Zm1.016-3.021a.222.222,0,1,1-.222.222A.222.222,0,0,1,51.541,105.166Zm-.222-6.4a.222.222,0,1,1-.222.222A.221.221,0,0,1,51.32,98.764Z" transform="translate(-42.515 -97.097)" fill="#f04e37"/>
      </g>
    </g>
    <g id="Group_36" data-name="Group 36" transform="translate(-672 -631.411)">
      <g id="pets-hotel-symbol-with-a-dog-and-a-cat-in-a-circle-with-one-star-2" data-name="pets-hotel-symbol-with-a-dog-and-a-cat-in-a-circle-with-one-star" transform="translate(758.107 967.795)">
        <g id="Group_17-2" data-name="Group 17" transform="translate(0 0)">
          <path id="Path_35-2" data-name="Path 35" d="M149.656,169.609s-.566.38-.767,2.227a2.553,2.553,0,0,0,2.955.956.229.229,0,0,0,.123-.158,7.392,7.392,0,0,0-1.4-3.663A2.452,2.452,0,0,0,149.656,169.609Z" transform="translate(-148.889 -168.97)" fill="#fff"/>
        </g>
      </g>
      <g id="Group_19-2" data-name="Group 19" transform="translate(753.755 967.411)">
        <path id="Path_36-2" data-name="Path 36" d="M50.525,108.187a.288.288,0,0,1,.175-.266l1.26-.473a.954.954,0,0,0,.837-.411,3.048,3.048,0,0,1,.325-.481.2.2,0,0,0-.009-.277,2.735,2.735,0,0,1-.824-1.212c-.066-.558-.853-1.018-1.871-1.083a1.637,1.637,0,0,1-.577-1.133c-.006-.109-.087-.217-.193-.19-.272.067-.734.416-.757,2.011a3.371,3.371,0,0,0-1.58,2.832c-.115-.069-.23-.137-.341-.213a4.239,4.239,0,0,1,.4-1.53,3.5,3.5,0,0,1,1.17-1.365c.058-1.575.569-2.035,1-2.14a.449.449,0,0,1,.378.077.545.545,0,0,1,.211.408,1.312,1.312,0,0,0,.391.838,3.807,3.807,0,0,1,.548.09l.016-.149.132-1.283a.513.513,0,0,1,.432-.43,2.891,2.891,0,0,0,2.759-2.572.51.51,0,0,0-.382-.487l-1.735-.424a.774.774,0,0,0-.542-.591,4.968,4.968,0,0,0-2.811-.585,7.472,7.472,0,0,1,1.4,3.8.607.607,0,0,1-.392.509,3.216,3.216,0,0,1-.992.158,2.877,2.877,0,0,1-2.133-.938q-.021.355-.023.769c-.008,1.428-1.822,2.783-1.822,2.783l-.217.449a5.493,5.493,0,0,0-2.2,2.964,10.562,10.562,0,0,0,0,2.017c.052.017,4.641.035,7.652,0a2.324,2.324,0,0,0,.3-.678A4.8,4.8,0,0,0,50.525,108.187Zm1.016-3.021a.222.222,0,1,1-.222.222A.222.222,0,0,1,51.541,105.166Zm-.222-6.4a.222.222,0,1,1-.222.222A.221.221,0,0,1,51.32,98.764Z" transform="translate(-42.515 -97.097)" fill="#fff"/>
      </g>
    </g>
    <g id="Group_35" data-name="Group 35" transform="translate(-1730 272)">
      <path id="Path_2" data-name="Path 2" d="M21,0A21,21,0,1,1,0,21,21,21,0,0,1,21,0Z" transform="translate(1848 14)" fill="#ddd"/>
      <g id="Group_3" data-name="Group 3" transform="translate(1843 20)">
        <g id="man-user" transform="translate(16 2)">
          <path id="Path_3" data-name="Path 3" d="M320.9,13.359c3.037,0,5.5-2.99,5.5-6.679S325.587,0,320.9,0s-5.5,2.99-5.5,6.68S317.859,13.359,320.9,13.359Z" transform="translate(-310.508 0)" fill="#fff"/>
          <path id="Path_4" data-name="Path 4" d="M126.4,906.38c0-.225,0-.063,0,0Z" transform="translate(-126.404 -882.823)" fill="#fff"/>
          <path id="Path_5" data-name="Path 5" d="M929.536,909.831c0-.062,0-.427,0,0Z" transform="translate(-908.762 -886.097)" fill="#fff"/>
          <path id="Path_6" data-name="Path 6" d="M147.2,544.681c-.1-6.426-.941-7.255-7.364-8.414a4.512,4.512,0,0,1-6.023,0c-6.352,1.147-7.243,1.948-7.36,8.205-.01.511-.014.538-.016.479,0,.111,0,.317,0,.675,0,0,1.529,3.082,10.386,3.082s10.386-3.082,10.386-3.082c0-.23,0-.39,0-.5A4.122,4.122,0,0,1,147.2,544.681Z" transform="translate(-126.441 -522.395)" fill="#fff"/>
        </g>
      </g>
    </g>
    <path id="Forma_1_copy_3" data-name="Forma 1 copy 3" d="M1278.965,38.122a3.341,3.341,0,0,1-.645-2.063h4.406a3.407,3.407,0,0,1-.646,2.063,1.867,1.867,0,0,1-1.551.878A1.915,1.915,0,0,1,1278.965,38.122Zm-6.906-3.518c-.609,0-.873-.19-.986-.413a.652.652,0,0,1-.073-.306.7.7,0,0,1,.115-.364,15.9,15.9,0,0,0,1.675-3.975,20.576,20.576,0,0,0,1.03-4.6,7.878,7.878,0,0,1,1.341-3.68,6.527,6.527,0,0,1,3.256-2.339,2.428,2.428,0,0,1,.749-1.375,1.965,1.965,0,0,1,1.362-.552,1.988,1.988,0,0,1,1.374.552,2.414,2.414,0,0,1,.759,1.375,6.238,6.238,0,0,1,2.185,1.21,6.3,6.3,0,0,1,1.06,1.129,7.861,7.861,0,0,1,1.353,3.68,20.723,20.723,0,0,0,1.019,4.6,15.633,15.633,0,0,0,1.686,3.975.669.669,0,0,1,.1.352.857.857,0,0,1-.062.318c-.115.223-.371.413-1,.413Z" transform="translate(-1139 353)" fill="#737373"/>
    <g id="permission" transform="translate(-103.4 362.801)">
      <path id="Path_6-2" data-name="Path 6" d="M436.391,332.8a1.208,1.208,0,0,0-1.191,1.191v.794h2.284v-.893a1.041,1.041,0,0,0-1.092-1.092Zm0,3.276a.469.469,0,0,0-.5.5.515.515,0,0,0,.2.4v.4c0,.1.1.2.3.2a.263.263,0,0,0,.3-.3v-.3a.752.752,0,0,0,.2-.4.469.469,0,0,0-.5-.5Z" transform="translate(-296.134 -277.232)" fill="#03d8d7"/>
      <path id="Path_7" data-name="Path 7" d="M145.519,53.186h-.4a8.314,8.314,0,0,1-.993-.2,4.915,4.915,0,0,1-1.29-.4,9.791,9.791,0,0,1-2.284-1.092l-.3-.3-.3.3a15.979,15.979,0,0,1-2.284,1.191c-.4.1-.794.3-1.29.4a5.588,5.588,0,0,0-.993.2c-.2.1-.3,0-.4,0H134.4v5.859a4.832,4.832,0,0,0,.6,2.185,7.438,7.438,0,0,0,1.489,1.986,8.406,8.406,0,0,0,1.887,1.39,3.493,3.493,0,0,0,1.788.5,4.89,4.89,0,0,0,1.788-.5,8.406,8.406,0,0,0,1.887-1.39,7.438,7.438,0,0,0,1.49-1.986,4.832,4.832,0,0,0,.6-2.185V53.285Zm-2.78,7.744a.427.427,0,0,1-.4.4h-4.165a.427.427,0,0,1-.4-.4V57.852a.427.427,0,0,1,.4-.4h.4v-.794a1.673,1.673,0,0,1,1.687-1.687,1.735,1.735,0,0,1,1.688,1.687v.794h.4a.427.427,0,0,1,.4.4Z" fill="#03d8d7"/>
    </g>
  </g>
</svg>
